<svg xmlns="http://www.w3.org/2000/svg" width="300" height="168" viewBox="0 0 300 168">
<g>
<path d="M 149.00 122.00 L 149.00 137.00 L 111.17 137.00 L 107.72 132.25 C104.29,127.53 102.00,123.65 102.00,122.57 C102.00,122.25 112.57,122.00 125.50,122.00 ZM 210.80 35.82 C210.43,37.72 208.13,37.81 171.75,37.27 L 151.00 36.96 L 151.00 22.93 L 160.25 23.58 C182.14,25.11 211.49,32.22 210.80,35.82 ZM 130.28 103.39 C129.94,103.72 121.63,104.00 111.81,104.00 C110.47,104.00 109.23,104.00 108.08,104.01 C98.72,104.03 95.09,104.04 93.45,102.24 C92.20,100.87 92.11,98.46 91.53,94.23 L 90.81 88.95 L 108.65 89.23 L 126.50 89.50 L 126.18 92.25 C126.00,93.82 126.34,95.00 126.99,95.00 C127.61,95.00 127.81,95.49 127.44,96.10 C127.07,96.70 127.69,98.45 128.83,99.98 C129.96,101.52 130.62,103.05 130.28,103.39 ZM 162.58 95.52 C162.94,96.87 161.96,98.80 159.55,101.51 C155.55,106.01 154.64,105.41 158.50,100.82 C161.52,97.23 161.59,96.39 159.00,95.00 C157.40,94.14 157.00,94.24 157.00,95.48 C157.00,96.33 155.43,97.78 153.50,98.70 C151.57,99.62 150.00,100.74 150.00,101.19 C150.00,101.63 149.55,102.00 149.00,102.00 C147.10,102.00 148.01,99.95 150.29,99.08 C153.96,97.69 155.33,95.48 154.03,93.06 C153.43,91.93 153.28,90.95 153.71,90.89 C155.22,90.66 146.47,88.96 142.25,88.65 C137.69,88.32 137.01,89.28 139.08,93.15 C139.68,94.26 139.88,95.46 139.53,95.81 C138.46,96.87 137.03,93.70 137.02,90.25 C137.00,87.66 137.41,87.00 139.00,87.00 C141.59,87.00 141.52,86.26 138.75,83.94 C135.71,81.41 135.27,81.52 134.50,85.00 C134.14,86.65 133.43,88.00 132.92,88.00 C131.53,88.00 131.80,86.84 134.03,83.19 C135.58,80.64 136.51,80.03 138.05,80.52 C139.45,80.96 140.64,80.45 141.99,78.83 C144.48,75.85 144.48,75.00 142.00,75.00 C139.41,75.00 139.42,73.32 142.01,72.50 C143.12,72.14 143.85,71.55 143.63,71.18 C143.41,70.81 144.76,69.77 146.62,68.88 C148.48,67.98 150.00,67.65 150.00,68.13 C150.00,68.61 151.20,69.00 152.67,69.00 C154.13,69.00 155.03,69.30 154.66,69.67 C154.30,70.04 154.69,71.11 155.55,72.05 C156.86,73.50 156.89,73.97 155.72,75.14 C154.96,75.90 154.53,77.08 154.75,77.76 C155.01,78.54 154.58,78.78 153.59,78.40 C151.48,77.58 150.32,80.77 152.11,82.47 C152.88,83.19 156.09,83.98 159.25,84.22 C165.38,84.69 166.20,83.97 163.53,80.44 C161.89,78.26 161.53,76.59 162.90,77.44 C163.39,77.74 164.05,77.32 164.36,76.49 C164.68,75.67 165.46,75.00 166.09,75.00 C166.94,75.00 166.95,75.35 166.14,76.33 C165.31,77.33 165.53,78.19 167.06,79.83 C168.36,81.23 168.62,82.01 167.79,82.02 C167.00,82.02 166.89,82.31 167.50,82.77 C169.23,84.03 169.08,86.00 167.25,86.03 C165.11,86.06 161.85,92.70 162.58,95.52 ZM 210.00 56.00 L 210.00 69.00 L 175.00 69.00 L 175.00 56.00 ZM 101.00 50.00 C98.61,51.54 93.00,51.23 93.00,49.56 C93.00,48.77 93.43,47.85 93.96,47.53 C94.48,47.20 94.63,46.20 94.29,45.31 C93.76,43.94 94.22,43.77 97.21,44.26 C100.39,44.78 100.75,44.60 100.75,42.56 C100.75,39.07 103.29,34.57 105.51,34.15 C107.42,33.78 107.43,33.85 105.75,35.71 C104.79,36.78 104.00,38.69 104.00,39.95 C104.00,41.83 104.40,42.13 106.25,41.63 C107.49,41.30 109.06,41.02 109.75,41.01 C110.44,41.01 110.95,40.66 110.88,40.25 C110.49,37.75 111.30,35.61 113.45,33.45 C116.58,30.33 119.10,30.20 116.17,33.31 C112.61,37.11 113.70,39.61 118.41,38.43 C120.09,38.01 121.27,36.72 122.00,34.49 C123.06,31.29 124.65,30.00 127.54,30.00 C128.41,30.00 128.01,30.90 126.45,32.45 C125.10,33.80 124.00,35.60 124.00,36.45 C124.00,38.96 128.96,38.33 131.59,35.50 C133.08,33.89 134.90,33.04 136.70,33.12 C138.24,33.18 138.75,33.43 137.84,33.67 C135.24,34.36 134.84,36.88 137.02,38.75 C140.11,41.39 139.38,41.90 134.75,40.30 C132.31,39.46 129.01,39.09 127.00,39.42 C125.08,39.74 122.82,40.04 122.00,40.10 C116.12,40.50 101.30,45.76 100.55,47.72 C100.28,48.43 100.61,49.01 101.28,49.02 C102.05,49.02 101.95,49.39 101.00,50.00 ZM 159.63 128.11 C158.73,127.36 158.04,127.36 157.29,128.11 C155.90,129.50 154.59,127.49 154.38,123.68 C154.21,120.48 156.26,119.14 158.50,121.00 C160.74,122.86 163.00,121.44 163.00,118.19 C163.00,116.60 163.82,114.57 164.83,113.65 C167.28,111.43 168.30,111.56 167.04,113.93 C165.27,117.23 165.79,119.00 168.50,119.00 C170.51,119.00 171.00,118.50 171.00,116.45 C171.00,113.82 174.97,109.00 177.14,109.00 C177.82,109.00 177.37,109.94 176.13,111.09 C173.78,113.29 173.57,117.04 175.76,117.76 C176.48,118.00 177.68,116.62 178.53,114.59 C179.59,112.05 180.66,111.00 182.17,111.00 C184.18,111.00 184.21,111.11 182.65,112.83 C181.74,113.83 181.00,115.18 181.00,115.83 C181.00,117.51 184.53,117.28 186.00,115.50 C186.68,114.68 188.40,114.00 189.81,114.00 L 192.38 114.00 L 190.17 116.06 C188.14,117.94 188.09,118.29 189.48,120.28 C191.54,123.22 191.40,124.67 189.25,122.72 C185.88,119.67 182.09,118.88 176.12,119.99 C167.03,121.67 161.86,123.98 162.52,126.06 C163.21,128.24 161.37,129.55 159.63,128.11 ZM 103.60 82.00 C103.53,83.04 102.21,83.57 99.30,83.74 C95.22,83.97 92.93,82.78 94.98,81.51 C95.54,81.16 96.00,79.74 96.00,78.33 C96.00,76.31 96.36,75.93 97.75,76.47 C101.08,77.76 101.50,77.49 101.18,74.19 C100.87,70.98 102.30,68.00 104.16,68.00 C104.66,68.00 104.57,68.94 103.96,70.08 C102.51,72.79 103.41,75.00 105.97,75.00 C107.61,75.00 108.00,74.35 108.00,71.65 C108.00,69.49 108.76,67.64 110.15,66.40 C112.28,64.51 112.28,64.52 111.15,66.68 C109.63,69.58 109.69,73.00 111.25,72.98 C113.43,72.96 114.82,71.57 115.54,68.68 C116.19,66.13 120.47,62.14 121.49,63.16 C121.73,63.39 120.81,64.87 119.46,66.45 C116.27,70.17 116.36,71.00 119.96,71.00 C121.92,71.00 123.30,70.31 124.01,68.97 C125.43,66.32 126.93,67.32 126.67,70.74 C126.47,73.30 126.18,73.45 120.98,73.58 C115.06,73.74 104.10,77.41 103.85,79.32 C103.76,79.97 103.65,81.18 103.60,82.00 ZM 100.34 65.54 C100.43,66.50 99.94,67.48 99.25,67.73 C98.56,67.97 98.00,67.67 98.00,67.06 C98.00,66.39 97.03,66.20 95.50,66.59 C93.02,67.21 91.98,65.75 94.00,64.50 C94.55,64.16 95.00,63.01 95.00,61.94 C95.00,59.77 96.05,59.45 97.71,61.11 C99.36,62.76 101.00,61.26 101.00,58.10 C101.00,56.56 101.90,54.49 103.00,53.50 C104.98,51.71 104.99,51.72 103.89,54.89 C101.86,60.70 106.10,60.39 108.54,54.55 C109.34,52.64 110.96,50.56 112.13,49.93 C114.20,48.82 114.21,48.86 112.63,51.12 C110.38,54.33 110.59,56.00 113.25,55.98 C114.80,55.96 115.97,54.95 117.00,52.73 C117.82,50.95 119.40,49.34 120.50,49.13 C122.42,48.78 122.43,48.85 120.75,50.71 C119.79,51.78 119.00,53.18 119.00,53.83 C119.00,55.74 123.42,55.16 125.27,53.00 C126.21,51.90 127.91,51.00 129.04,51.00 C130.99,51.00 130.96,51.14 128.55,53.36 C127.15,54.67 126.00,56.23 126.00,56.83 C126.00,57.44 125.40,57.71 124.66,57.42 C122.74,56.69 109.86,59.53 104.62,61.84 C101.65,63.16 100.24,64.38 100.34,65.54 ZM 162.87 147.10 C162.67,147.16 160.77,147.36 158.66,147.55 C155.50,147.84 154.93,147.62 155.43,146.32 C155.76,145.46 155.55,144.17 154.97,143.46 C153.48,141.67 155.64,140.46 157.53,142.03 C158.68,142.98 159.10,142.90 159.60,141.61 C159.94,140.73 159.98,139.40 159.70,138.66 C159.42,137.92 159.54,136.74 159.98,136.03 C160.57,135.08 160.96,135.30 161.46,136.87 C162.46,140.03 165.00,139.56 165.00,136.20 C165.00,133.52 166.54,131.00 168.18,131.00 C168.60,131.00 168.51,132.15 167.98,133.57 C166.68,136.97 166.69,137.00 169.00,137.00 C170.10,137.00 171.00,136.39 171.00,135.65 C171.00,133.80 174.28,131.00 176.44,131.00 C177.95,131.00 177.86,131.30 175.86,132.93 C174.07,134.39 173.78,135.14 174.65,136.03 C175.53,136.93 176.54,136.66 178.89,134.92 C180.59,133.67 182.29,132.95 182.66,133.33 C183.04,133.71 182.49,134.66 181.43,135.45 C179.79,136.66 179.69,137.18 180.75,138.93 C182.60,141.95 182.31,142.21 179.05,140.53 C175.32,138.59 171.91,138.59 167.29,140.52 C161.98,142.74 160.73,143.97 162.11,145.63 C162.73,146.38 163.08,147.05 162.87,147.10 ZM 198.39 103.88 C201.22,107.00 199.86,107.88 196.14,105.34 C190.45,101.46 182.84,101.24 171.00,104.60 C168.51,105.31 168.51,105.31 170.40,103.16 C171.45,101.97 173.06,101.00 173.99,101.00 C174.91,101.00 176.75,99.31 178.09,97.25 C179.52,95.04 181.46,93.36 182.83,93.17 L 185.16 92.84 L 183.08 94.92 C180.37,97.63 180.45,99.00 183.31,99.00 C184.72,99.00 186.49,97.83 187.84,96.00 C189.06,94.35 190.95,93.00 192.03,93.00 C194.65,93.00 194.51,93.81 191.50,96.18 C190.12,97.26 189.00,98.51 189.00,98.96 C189.00,100.55 193.43,100.92 195.04,99.46 C196.87,97.80 201.00,97.48 201.00,99.00 C201.00,99.55 200.66,100.01 200.25,100.02 C199.84,100.02 198.84,100.45 198.04,100.95 C196.79,101.75 196.84,102.16 198.39,103.88 ZM 121.25 21.35 C109.74,23.50 109.60,23.44 110.18,16.39 C110.30,14.96 110.30,14.08 110.70,13.44 C111.45,12.25 113.63,11.95 120.75,10.65 L 124.00 10.05 L 124.00 15.45 C124.00,20.54 123.85,20.87 121.25,21.35 ZM 208.00 28.11 C208.00,29.34 205.43,29.05 199.25,27.15 L 194.00 25.53 L 194.00 19.76 C194.00,13.15 194.28,13.02 202.44,15.89 C207.47,17.67 209.65,19.97 206.33,20.03 C204.56,20.06 204.56,20.11 206.35,21.47 C209.27,23.68 207.55,24.99 203.24,23.81 C201.18,23.25 198.93,22.32 198.23,21.75 C197.53,21.18 196.69,20.97 196.38,21.29 C195.49,22.18 196.95,24.00 198.54,24.00 C200.80,24.00 208.00,27.13 208.00,28.11 ZM 129.29 18.00 C128.27,21.88 127.00,19.93 127.00,14.50 L 127.00 9.00 L 130.93 9.00 C133.10,9.00 136.02,8.56 137.42,8.03 C139.68,7.17 140.05,7.35 140.60,9.53 C140.94,10.88 140.93,12.73 140.59,13.62 C140.25,14.52 140.49,15.89 141.14,16.67 C141.97,17.67 142.00,18.40 141.25,19.15 C140.50,19.90 139.86,19.60 139.06,18.11 C137.47,15.13 130.06,15.05 129.29,18.00 ZM 95.00 26.66 C95.00,27.95 94.55,29.00 94.00,29.00 C93.45,29.00 93.00,27.24 93.00,25.08 C93.00,22.93 92.75,20.50 92.44,19.70 C92.02,18.61 93.51,17.67 98.13,16.11 C106.48,13.29 107.00,13.37 107.00,17.34 C107.00,20.56 106.77,20.75 101.00,22.50 C95.89,24.05 95.00,24.66 95.00,26.66 ZM 156.42 19.39 C155.55,19.73 152.62,20.00 149.92,20.00 C146.21,20.00 145.00,19.63 145.00,18.50 C145.00,17.37 146.22,17.00 150.00,17.00 C152.75,17.00 155.00,16.58 155.00,16.07 C155.00,14.78 152.12,14.05 148.25,14.36 C145.19,14.60 145.00,14.43 145.00,11.31 L 145.00 8.00 L 151.75 8.17 L 158.50 8.34 L 152.50 8.92 C148.09,9.35 146.50,9.90 146.50,11.00 C146.50,12.12 147.94,12.58 152.25,12.80 C157.83,13.09 158.00,13.18 158.00,15.94 C158.00,17.61 157.35,19.04 156.42,19.39 ZM 190.87 18.00 C190.72,21.36 190.21,23.00 189.32,23.00 C188.59,23.00 188.00,22.10 188.00,21.00 C188.00,19.77 187.33,18.99 186.25,18.99 C185.29,18.98 183.46,18.69 182.19,18.35 C180.39,17.87 179.76,18.21 179.33,19.86 C179.02,21.02 178.37,21.73 177.89,21.43 C176.66,20.67 176.77,10.00 178.00,10.00 C178.55,10.00 179.00,11.09 179.00,12.43 C179.00,14.85 179.44,15.13 185.25,16.43 C187.83,17.00 188.53,16.35 188.12,13.75 C188.05,13.34 188.70,13.00 189.55,13.00 C190.77,13.00 191.05,14.05 190.87,18.00 ZM 112.00 17.61 C112.00,21.28 112.77,21.60 118.88,20.38 C121.75,19.80 122.00,19.43 122.00,15.77 C122.00,12.35 121.75,11.89 120.25,12.55 C119.29,12.96 117.04,13.51 115.25,13.76 C112.31,14.17 112.00,14.54 112.00,17.61 ZM 173.50 19.00 C176.31,20.21 166.25,20.18 163.25,18.97 C161.47,18.25 161.00,17.27 161.00,14.23 C161.00,12.12 161.51,9.89 162.14,9.26 C163.45,7.95 172.92,8.70 174.50,10.23 C175.15,10.86 173.25,10.95 169.10,10.49 L 162.70 9.77 L 163.35 13.01 C163.71,14.79 164.00,16.64 164.00,17.12 C164.00,17.61 165.69,18.03 167.75,18.07 C169.81,18.11 172.40,18.53 173.50,19.00 ZM 129.46 13.94 C130.28,15.26 136.74,14.58 138.36,13.01 C139.80,11.62 138.06,10.00 135.13,10.00 C131.68,10.00 128.42,12.26 129.46,13.94 ZM 95.46 20.93 C96.28,22.26 96.41,22.26 101.13,20.84 C103.80,20.04 105.00,19.11 105.00,17.84 C105.00,15.59 104.31,15.56 99.37,17.61 C94.69,19.55 94.63,19.60 95.46,20.93 ZM 198.25 19.29 C203.62,20.33 204.50,19.92 201.00,18.00 C196.74,15.67 196.00,15.59 196.00,17.43 C196.00,18.22 197.01,19.06 198.25,19.29 ZM 149.00 75.58 C149.00,76.91 149.45,78.00 150.00,78.00 C151.67,78.00 151.12,72.34 149.31,70.87 C147.83,69.66 147.71,69.72 148.31,71.33 C148.69,72.34 149.00,74.25 149.00,75.58 Z" fill="rgb(23,9,3)"/>
<path d="M 210.47 47.44 L 209.79 53.83 L 204.14 54.16 C201.04,54.35 187.81,54.38 174.75,54.23 L 151.00 53.96 L 151.00 40.00 L 158.25 39.99 C162.24,39.99 175.44,39.69 187.60,39.34 C204.09,38.86 209.88,39.00 210.42,39.88 C210.82,40.53 210.85,43.93 210.47,47.44 ZM 148.81 116.42 L 149.12 120.00 L 100.05 120.00 L 98.44 116.89 C97.56,115.17 96.21,112.02 95.46,109.89 L 94.09 106.00 L 113.82 106.00 C130.25,106.00 133.94,106.27 135.83,107.59 C137.08,108.47 140.44,110.01 143.30,111.01 C148.14,112.71 148.52,113.08 148.81,116.42 ZM 209.50 71.50 L 209.50 86.50 L 192.25 86.71 L 175.00 86.93 L 175.00 70.95 ZM 149.00 150.00 C149.00,150.36 149.00,150.70 149.00,151.04 C149.00,156.81 149.01,159.76 147.68,160.59 C146.30,161.46 143.49,160.04 137.75,157.16 C137.43,157.00 137.10,156.83 136.76,156.66 C129.42,152.98 115.19,142.74 113.42,139.87 C113.12,139.39 120.98,139.00 130.94,139.00 L 149.00 139.00 ZM 173.50 19.00 C172.40,18.53 169.81,18.11 167.75,18.07 C165.69,18.03 164.00,17.61 164.00,17.12 C164.00,16.95 163.96,16.59 163.89,16.12 C164.31,17.62 165.10,18.00 167.37,18.01 C172.01,18.03 175.00,19.05 175.00,20.62 C175.00,22.08 172.67,22.20 165.50,21.11 L 161.50 20.50 L 161.30 17.08 C161.61,18.04 162.20,18.55 163.25,18.97 C166.25,20.18 176.31,20.21 173.50,19.00 ZM 146.55 11.32 C146.52,11.22 146.50,11.12 146.50,11.00 C146.50,9.90 148.09,9.35 152.50,8.92 L 157.19 8.46 C157.78,8.69 158.00,9.03 158.00,9.50 C158.00,10.64 156.62,11.04 152.25,11.16 ZM 163.56 14.12 C163.50,13.76 163.43,13.38 163.35,13.01 L 162.70 9.77 L 169.10 10.49 C172.54,10.87 174.43,10.88 174.61,10.51 C174.65,10.56 174.68,10.62 174.71,10.68 C175.54,12.85 174.72,13.07 169.42,12.08 C164.76,11.21 163.39,11.54 163.56,14.12 ZM 134.82 14.39 L 134.88 14.38 C139.23,13.50 138.77,12.28 133.93,11.82 C131.93,11.63 130.56,11.70 129.81,12.04 C130.78,10.93 132.92,10.00 135.13,10.00 C138.06,10.00 139.80,11.62 138.36,13.01 C137.72,13.63 136.33,14.11 134.82,14.39 ZM 129.29 18.00 C129.85,15.85 133.96,15.31 136.75,16.34 C136.34,16.35 135.87,16.53 135.28,16.85 C134.17,17.45 132.29,17.75 131.12,17.52 C129.32,17.18 129.05,17.50 129.42,19.56 C129.73,21.22 129.41,22.00 128.43,22.00 C127.34,22.00 127.00,20.48 127.00,15.50 L 127.00 14.50 C127.00,19.93 128.27,21.88 129.29,18.00 ZM 121.25 21.35 C123.84,20.87 124.00,20.54 124.00,15.51 L 124.00 20.98 L 119.79 21.65 C116.44,22.18 115.98,22.48 117.54,23.09 C119.27,23.77 119.20,23.86 117.00,23.87 C115.62,23.87 113.46,23.46 112.19,22.95 C111.47,22.66 110.97,22.38 110.65,21.96 C111.77,23.09 114.63,22.59 121.25,21.35 ZM 157.43 13.58 C156.76,13.06 155.33,12.96 152.25,12.80 C148.39,12.60 146.83,12.22 146.55,11.33 L 152.00 11.91 C155.65,12.30 156.90,12.52 157.43,13.58 ZM 153.00 110.00 C151.06,111.26 149.28,111.26 148.50,110.00 C148.13,109.41 149.24,109.01 151.19,109.02 C153.70,109.03 154.14,109.27 153.00,110.00 ZM 173.00 93.00 C173.00,93.55 172.55,94.00 172.00,94.00 C171.45,94.00 171.00,93.55 171.00,93.00 C171.00,92.45 171.45,92.00 172.00,92.00 C172.55,92.00 173.00,92.45 173.00,93.00 ZM 156.58 8.29 L 145.00 8.00 L 151.50 8.00 C153.98,8.00 155.59,8.08 156.58,8.29 ZM 140.70 19.52 C140.88,19.46 141.06,19.34 141.25,19.15 C141.40,19.00 141.52,18.85 141.60,18.71 C141.57,18.85 141.51,18.98 141.44,19.09 C141.24,19.42 140.99,19.57 140.70,19.52 ZM 120.75 10.65 C116.29,11.47 113.76,11.89 112.32,12.38 C113.77,11.86 116.29,11.46 120.75,10.65 ZM 164.53 8.64 C165.47,8.56 166.58,8.56 167.72,8.65 C166.58,8.57 165.47,8.57 164.53,8.64 ZM 138.52 17.40 C138.70,17.58 138.86,17.77 138.98,17.98 C138.82,17.76 138.67,17.57 138.52,17.40 ZM 161.42 10.84 C161.52,10.43 161.63,10.10 161.77,9.83 C161.65,10.10 161.53,10.45 161.42,10.84 ZM 157.05 18.94 C157.13,18.86 157.20,18.77 157.27,18.68 C157.20,18.78 157.13,18.87 157.05,18.94 ZM 129.46 13.94 C129.44,13.91 129.43,13.88 129.41,13.85 C129.43,13.88 129.45,13.92 129.47,13.96 C129.47,13.95 129.47,13.94 129.46,13.94 Z" fill="rgb(158,56,35)"/>
<path d="M 149.00 122.00 L 125.50 122.00 C112.57,122.00 102.00,122.25 102.00,122.57 C102.00,123.00 102.38,123.90 103.06,125.14 C102.19,123.83 101.43,122.68 100.98,122.00 C100.46,121.21 99.47,119.19 98.41,116.82 C98.42,116.84 98.43,116.86 98.44,116.89 L 100.05 120.00 L 149.12 120.00 L 148.81 116.42 C148.52,113.08 148.14,112.71 143.30,111.01 C140.44,110.01 137.08,108.47 135.83,107.59 C133.94,106.27 130.25,106.00 113.82,106.00 L 94.09 106.00 L 95.45 109.85 C94.59,107.70 94.00,106.03 94.00,105.61 C94.00,105.30 100.86,104.92 109.25,104.75 L 124.50 104.44 L 109.23 104.22 C108.26,104.21 107.35,104.20 106.49,104.19 C98.44,104.09 95.13,104.04 93.55,102.37 C93.40,102.21 93.26,102.04 93.14,101.84 C93.24,101.98 93.34,102.11 93.45,102.24 C95.06,104.01 98.60,104.03 107.60,104.01 L 108.08 104.01 L 108.09 104.01 C109.24,104.00 110.48,104.00 111.81,104.00 C121.63,104.00 129.94,103.72 130.28,103.39 C130.62,103.05 129.96,101.52 128.83,99.98 C127.69,98.45 127.07,96.70 127.44,96.10 C127.81,95.49 127.61,95.00 126.99,95.00 C126.34,95.00 126.00,93.82 126.18,92.25 L 126.50 89.50 L 108.65 89.23 L 93.87 89.00 L 108.07 89.00 C117.57,89.00 125.10,88.77 124.81,88.48 C124.18,87.85 112.50,86.78 105.00,86.68 C101.97,86.64 99.17,86.13 98.77,85.55 C98.28,84.86 98.03,84.92 98.02,85.73 C98.01,86.50 96.90,86.83 95.02,86.61 C93.05,86.38 92.26,86.64 92.67,87.38 C93.05,88.07 92.79,88.04 92.00,87.30 C91.29,86.64 90.66,84.05 90.60,81.55 C90.55,79.05 90.28,77.00 90.00,77.00 C89.24,77.00 89.57,53.10 90.33,52.33 C90.70,51.96 90.22,50.76 89.25,49.66 C88.29,48.56 88.06,47.99 88.75,48.39 C89.44,48.79 90.00,48.73 90.00,48.26 C90.00,47.79 89.44,46.79 88.75,46.05 C87.74,44.97 87.76,44.86 88.85,45.47 C89.94,46.09 89.98,45.83 89.09,44.16 C88.47,43.01 88.04,39.25 88.11,35.79 C88.19,32.33 87.92,26.56 87.51,22.97 C86.64,15.28 86.78,15.08 95.71,12.16 C104.13,9.41 111.00,8.42 111.00,9.96 C111.00,10.77 111.44,10.70 112.40,9.74 C113.23,8.91 115.69,8.37 118.40,8.42 C120.93,8.46 123.00,8.10 123.00,7.62 C123.00,7.14 124.80,7.03 127.00,7.38 C129.61,7.80 131.00,7.65 131.00,6.93 C131.00,6.19 133.02,6.06 137.38,6.52 C141.85,7.00 143.97,6.85 144.48,6.03 C145.00,5.19 147.36,5.05 152.67,5.55 C156.77,5.93 162.46,6.41 165.32,6.62 C172.52,7.14 175.22,7.55 177.26,8.45 C178.29,8.90 179.62,8.73 180.45,8.04 C181.40,7.25 183.47,7.10 186.69,7.58 C191.92,8.36 210.19,13.38 212.12,14.57 C213.02,15.13 213.13,22.84 212.60,46.40 C212.21,63.51 211.69,81.10 211.44,85.50 C210.92,94.67 208.12,109.00 206.86,109.00 C206.38,109.00 206.00,109.48 206.00,110.06 C206.00,110.64 206.45,110.84 207.00,110.50 C208.76,109.41 208.07,110.85 205.75,113.11 C204.51,114.31 204.18,114.92 205.00,114.46 C206.24,113.76 206.29,113.88 205.26,115.15 C204.58,115.99 204.31,116.98 204.68,117.34 C205.04,117.70 204.73,118.00 204.00,118.00 C203.27,118.00 202.95,118.28 203.29,118.62 C203.63,118.97 202.77,120.74 201.38,122.57 C199.99,124.39 198.92,126.17 199.01,126.53 C199.10,126.88 198.83,127.47 198.42,127.83 C198.01,128.20 198.05,127.87 198.49,127.10 C199.04,126.15 198.93,125.92 198.15,126.40 C197.52,126.80 197.00,127.77 197.00,128.56 C197.00,129.35 196.56,130.00 196.03,130.00 C195.50,130.00 195.35,130.75 195.70,131.67 C196.21,133.00 195.95,133.20 194.45,132.62 C193.41,132.22 192.86,132.20 193.23,132.57 C193.60,132.94 193.25,133.90 192.44,134.70 C191.64,135.50 191.28,136.69 191.65,137.33 C192.02,137.97 191.98,138.19 191.56,137.82 C190.69,137.04 181.44,146.06 181.81,147.32 C181.94,147.78 181.60,147.87 181.06,147.54 C180.52,147.20 179.14,147.96 177.99,149.21 C172.78,154.93 171.26,156.04 163.14,160.01 C150.91,166.00 149.31,166.04 138.61,160.63 C133.72,158.15 128.14,154.63 126.21,152.81 C124.28,150.99 123.06,150.18 123.51,151.00 C124.69,153.19 114.98,143.12 111.75,138.80 C110.24,136.79 109.00,134.89 109.00,134.60 C109.00,134.42 108.50,133.51 107.73,132.26 L 111.17 137.00 L 149.00 137.00 ZM 210.47 47.44 C210.85,43.93 210.82,40.53 210.42,39.88 C209.88,39.00 204.09,38.86 187.60,39.34 C175.44,39.69 162.24,39.99 158.25,39.99 L 151.00 40.00 L 151.00 53.96 L 174.75 54.23 C187.81,54.38 201.04,54.35 204.14,54.16 L 209.79 53.83 ZM 210.80 35.82 C211.49,32.22 182.14,25.11 160.25,23.58 L 160.14 23.57 C161.44,23.53 162.29,23.34 162.50,23.00 C162.84,22.45 162.75,21.96 162.31,21.92 C161.86,21.87 160.15,21.56 158.50,21.22 C153.52,20.21 138.00,20.76 138.00,21.95 C138.00,22.41 139.80,22.70 142.00,22.59 C144.20,22.48 146.00,22.80 146.00,23.30 C146.00,23.80 146.68,23.95 147.50,23.64 C148.32,23.32 149.01,23.61 149.02,24.28 C149.03,25.11 149.32,25.05 149.92,24.10 C150.15,23.73 150.49,23.47 151.00,23.31 L 151.00 36.96 L 171.75 37.27 C208.13,37.81 210.43,37.72 210.80,35.82 ZM 209.50 71.50 L 175.00 70.95 L 175.00 86.93 L 192.25 86.71 L 209.50 86.50 ZM 149.00 150.00 L 149.00 139.00 L 130.94 139.00 C120.98,139.00 113.12,139.39 113.42,139.87 C115.19,142.74 129.42,152.98 136.76,156.66 C137.10,156.83 137.43,157.00 137.75,157.16 C143.49,160.04 146.30,161.46 147.68,160.59 C149.01,159.76 149.00,156.81 149.00,151.04 C149.00,150.70 149.00,150.36 149.00,150.00 ZM 162.58 95.52 C161.85,92.70 165.11,86.06 167.25,86.03 C169.08,86.00 169.23,84.03 167.50,82.77 C166.89,82.31 167.00,82.02 167.79,82.02 C168.62,82.01 168.36,81.23 167.06,79.83 C165.53,78.19 165.31,77.33 166.14,76.33 C166.95,75.35 166.94,75.00 166.09,75.00 C165.46,75.00 164.68,75.67 164.36,76.49 C164.05,77.32 163.39,77.74 162.90,77.44 C161.53,76.59 161.89,78.26 163.53,80.44 C166.20,83.97 165.38,84.69 159.25,84.22 C156.09,83.98 152.88,83.19 152.11,82.47 C150.32,80.77 151.48,77.58 153.59,78.40 C154.58,78.78 155.01,78.54 154.75,77.76 C154.53,77.08 154.96,75.90 155.72,75.14 C156.89,73.97 156.86,73.50 155.55,72.05 C154.69,71.11 154.30,70.04 154.66,69.67 C155.03,69.30 154.13,69.00 152.67,69.00 C151.20,69.00 150.00,68.61 150.00,68.13 C150.00,67.65 148.48,67.98 146.62,68.88 C144.76,69.77 143.41,70.81 143.63,71.18 C143.85,71.55 143.12,72.14 142.01,72.50 C139.42,73.32 139.41,75.00 142.00,75.00 C144.48,75.00 144.48,75.85 141.99,78.83 C140.64,80.45 139.45,80.96 138.05,80.52 C136.51,80.03 135.58,80.64 134.03,83.19 C131.80,86.84 131.53,88.00 132.92,88.00 C133.43,88.00 134.14,86.65 134.50,85.00 C135.27,81.52 135.71,81.41 138.75,83.94 C141.52,86.26 141.59,87.00 139.00,87.00 C137.41,87.00 137.00,87.66 137.02,90.25 C137.03,93.70 138.46,96.87 139.53,95.81 C139.88,95.46 139.68,94.26 139.08,93.15 C137.01,89.28 137.69,88.32 142.25,88.65 C146.47,88.96 155.22,90.66 153.71,90.89 C153.28,90.95 153.43,91.93 154.03,93.06 C155.33,95.48 153.96,97.69 150.29,99.08 C148.01,99.95 147.10,102.00 149.00,102.00 C149.55,102.00 150.00,101.63 150.00,101.19 C150.00,100.74 151.57,99.62 153.50,98.70 C155.43,97.78 157.00,96.33 157.00,95.48 C157.00,94.24 157.40,94.14 159.00,95.00 C161.59,96.39 161.52,97.23 158.50,100.82 C154.64,105.41 155.55,106.01 159.55,101.51 C161.96,98.80 162.94,96.87 162.58,95.52 ZM 210.00 56.00 L 175.00 56.00 L 175.00 69.00 L 210.00 69.00 ZM 101.00 50.00 C101.95,49.39 102.05,49.02 101.28,49.02 C100.61,49.01 100.28,48.43 100.55,47.72 C101.30,45.76 116.12,40.50 122.00,40.10 C122.82,40.04 125.08,39.74 127.00,39.42 C129.01,39.09 132.31,39.46 134.75,40.30 C139.38,41.90 140.11,41.39 137.02,38.75 C134.84,36.88 135.24,34.36 137.84,33.67 C138.75,33.43 138.24,33.18 136.70,33.12 C134.90,33.04 133.08,33.89 131.59,35.50 C128.96,38.33 124.00,38.96 124.00,36.45 C124.00,35.60 125.10,33.80 126.45,32.45 C128.01,30.90 128.41,30.00 127.54,30.00 C124.65,30.00 123.06,31.29 122.00,34.49 C121.27,36.72 120.09,38.01 118.41,38.43 C113.70,39.61 112.61,37.11 116.17,33.31 C119.10,30.20 116.58,30.33 113.45,33.45 C111.30,35.61 110.49,37.75 110.88,40.25 C110.95,40.66 110.44,41.01 109.75,41.01 C109.06,41.02 107.49,41.30 106.25,41.63 C104.40,42.13 104.00,41.83 104.00,39.95 C104.00,38.69 104.79,36.78 105.75,35.71 C107.43,33.85 107.42,33.78 105.51,34.15 C103.29,34.57 100.75,39.07 100.75,42.56 C100.75,44.60 100.39,44.78 97.21,44.26 C94.22,43.77 93.76,43.94 94.29,45.31 C94.63,46.20 94.48,47.20 93.96,47.53 C93.43,47.85 93.00,48.77 93.00,49.56 C93.00,51.23 98.61,51.54 101.00,50.00 ZM 159.63 128.11 C161.37,129.55 163.21,128.24 162.52,126.06 C161.86,123.98 167.03,121.67 176.12,119.99 C182.09,118.88 185.88,119.67 189.25,122.72 C191.40,124.67 191.54,123.22 189.48,120.28 C188.09,118.29 188.14,117.94 190.17,116.06 L 192.38 114.00 L 189.81 114.00 C188.40,114.00 186.68,114.68 186.00,115.50 C184.53,117.28 181.00,117.51 181.00,115.83 C181.00,115.18 181.74,113.83 182.65,112.83 C184.21,111.11 184.18,111.00 182.17,111.00 C180.66,111.00 179.59,112.05 178.53,114.59 C177.68,116.62 176.48,118.00 175.76,117.76 C173.57,117.04 173.78,113.29 176.13,111.09 C177.37,109.94 177.82,109.00 177.14,109.00 C174.97,109.00 171.00,113.82 171.00,116.45 C171.00,118.50 170.51,119.00 168.50,119.00 C165.79,119.00 165.27,117.23 167.04,113.93 C168.30,111.56 167.28,111.43 164.83,113.65 C163.82,114.57 163.00,116.60 163.00,118.19 C163.00,121.44 160.74,122.86 158.50,121.00 C156.26,119.14 154.21,120.48 154.38,123.68 C154.59,127.49 155.90,129.50 157.29,128.11 C158.04,127.36 158.73,127.36 159.63,128.11 ZM 103.60 82.00 C103.65,81.18 103.76,79.97 103.85,79.32 C104.10,77.41 115.06,73.74 120.98,73.58 C126.18,73.45 126.47,73.30 126.67,70.74 C126.93,67.32 125.43,66.32 124.01,68.97 C123.30,70.31 121.92,71.00 119.96,71.00 C116.36,71.00 116.27,70.17 119.46,66.45 C120.81,64.87 121.73,63.39 121.49,63.16 C120.47,62.14 116.19,66.13 115.54,68.68 C114.82,71.57 113.43,72.96 111.25,72.98 C109.69,73.00 109.63,69.58 111.15,66.68 C112.28,64.52 112.28,64.51 110.15,66.40 C108.76,67.64 108.00,69.49 108.00,71.65 C108.00,74.35 107.61,75.00 105.97,75.00 C103.41,75.00 102.51,72.79 103.96,70.08 C104.57,68.94 104.66,68.00 104.16,68.00 C102.30,68.00 100.87,70.98 101.18,74.19 C101.50,77.49 101.08,77.76 97.75,76.47 C96.36,75.93 96.00,76.31 96.00,78.33 C96.00,79.74 95.54,81.16 94.98,81.51 C92.93,82.78 95.22,83.97 99.30,83.74 C102.21,83.57 103.53,83.04 103.60,82.00 ZM 100.34 65.54 C100.24,64.38 101.65,63.16 104.62,61.84 C109.86,59.53 122.74,56.69 124.66,57.42 C125.40,57.71 126.00,57.44 126.00,56.83 C126.00,56.23 127.15,54.67 128.55,53.36 C130.96,51.14 130.99,51.00 129.04,51.00 C127.91,51.00 126.21,51.90 125.27,53.00 C123.42,55.16 119.00,55.74 119.00,53.83 C119.00,53.18 119.79,51.78 120.75,50.71 C122.43,48.85 122.42,48.78 120.50,49.13 C119.40,49.34 117.82,50.95 117.00,52.73 C115.97,54.95 114.80,55.96 113.25,55.98 C110.59,56.00 110.38,54.33 112.63,51.12 C114.21,48.86 114.20,48.82 112.13,49.93 C110.96,50.56 109.34,52.64 108.54,54.55 C106.10,60.39 101.86,60.70 103.89,54.89 C104.99,51.72 104.98,51.71 103.00,53.50 C101.90,54.49 101.00,56.56 101.00,58.10 C101.00,61.26 99.36,62.76 97.71,61.11 C96.05,59.45 95.00,59.77 95.00,61.94 C95.00,63.01 94.55,64.16 94.00,64.50 C91.98,65.75 93.02,67.21 95.50,66.59 C97.03,66.20 98.00,66.39 98.00,67.06 C98.00,67.67 98.56,67.97 99.25,67.73 C99.94,67.48 100.43,66.50 100.34,65.54 ZM 162.87 147.10 C163.08,147.05 162.73,146.38 162.11,145.63 C160.73,143.97 161.98,142.74 167.29,140.52 C171.91,138.59 175.32,138.59 179.05,140.53 C182.31,142.21 182.60,141.95 180.75,138.93 C179.69,137.18 179.79,136.66 181.43,135.45 C182.49,134.66 183.04,133.71 182.66,133.33 C182.29,132.95 180.59,133.67 178.89,134.92 C176.54,136.66 175.53,136.93 174.65,136.03 C173.78,135.14 174.07,134.39 175.86,132.93 C177.86,131.30 177.95,131.00 176.44,131.00 C174.28,131.00 171.00,133.80 171.00,135.65 C171.00,136.39 170.10,137.00 169.00,137.00 C166.69,137.00 166.68,136.97 167.98,133.57 C168.51,132.15 168.60,131.00 168.18,131.00 C166.54,131.00 165.00,133.52 165.00,136.20 C165.00,139.56 162.46,140.03 161.46,136.87 C160.96,135.30 160.57,135.08 159.98,136.03 C159.54,136.74 159.42,137.92 159.70,138.66 C159.98,139.40 159.94,140.73 159.60,141.61 C159.10,142.90 158.68,142.98 157.53,142.03 C155.64,140.46 153.48,141.67 154.97,143.46 C155.55,144.17 155.76,145.46 155.43,146.32 C154.93,147.62 155.50,147.84 158.66,147.55 C160.77,147.36 162.67,147.16 162.87,147.10 ZM 198.39 103.88 C196.84,102.16 196.79,101.75 198.04,100.95 C198.84,100.45 199.84,100.02 200.25,100.02 C200.66,100.01 201.00,99.55 201.00,99.00 C201.00,97.48 196.87,97.80 195.04,99.46 C193.43,100.92 189.00,100.55 189.00,98.96 C189.00,98.51 190.12,97.26 191.50,96.18 C194.51,93.81 194.65,93.00 192.03,93.00 C190.95,93.00 189.06,94.35 187.84,96.00 C186.49,97.83 184.72,99.00 183.31,99.00 C180.45,99.00 180.37,97.63 183.08,94.92 L 185.16 92.84 L 182.83 93.17 C181.46,93.36 179.52,95.04 178.09,97.25 C176.75,99.31 174.91,101.00 173.99,101.00 C173.06,101.00 171.45,101.97 170.40,103.16 C168.51,105.31 168.51,105.31 171.00,104.60 C182.84,101.24 190.45,101.46 196.14,105.34 C199.86,107.88 201.22,107.00 198.39,103.88 ZM 120.75 10.65 C116.29,11.47 113.76,11.89 112.32,12.38 C111.46,12.68 110.98,13.00 110.70,13.44 C110.30,14.08 110.30,14.96 110.18,16.39 C109.94,19.39 109.82,21.12 110.65,21.96 C110.97,22.38 111.47,22.66 112.19,22.95 C113.46,23.46 115.62,23.87 117.00,23.87 C119.20,23.86 119.27,23.77 117.54,23.09 C115.98,22.48 116.44,22.18 119.79,21.65 L 124.00 20.98 L 124.00 15.51 L 124.00 15.45 L 124.00 10.05 ZM 208.00 28.11 C208.00,27.13 200.80,24.00 198.54,24.00 C196.95,24.00 195.49,22.18 196.38,21.29 C196.69,20.97 197.53,21.18 198.23,21.75 C198.93,22.32 201.18,23.25 203.24,23.81 C207.55,24.99 209.27,23.68 206.35,21.47 C204.56,20.11 204.56,20.06 206.33,20.03 C209.65,19.97 207.47,17.67 202.44,15.89 C194.28,13.02 194.00,13.15 194.00,19.76 L 194.00 25.53 L 199.25 27.15 C205.43,29.05 208.00,29.34 208.00,28.11 ZM 127.00 9.00 L 127.00 15.50 C127.00,20.48 127.34,22.00 128.43,22.00 C129.41,22.00 129.73,21.22 129.42,19.56 C129.05,17.50 129.32,17.18 131.12,17.52 C132.29,17.75 134.17,17.45 135.28,16.85 C135.87,16.53 136.34,16.35 136.75,16.34 C137.45,16.59 138.07,16.95 138.52,17.40 C138.67,17.57 138.82,17.76 138.98,17.98 C139.01,18.02 139.03,18.06 139.06,18.11 C139.65,19.22 140.16,19.67 140.70,19.52 C140.99,19.57 141.24,19.42 141.44,19.09 C141.51,18.98 141.57,18.85 141.60,18.71 C141.96,18.10 141.81,17.47 141.14,16.67 C140.49,15.89 140.25,14.52 140.59,13.62 C140.93,12.73 140.94,10.88 140.60,9.53 C140.05,7.35 139.68,7.17 137.42,8.03 C136.02,8.56 133.10,9.00 130.93,9.00 ZM 156.42 19.39 C156.65,19.30 156.86,19.15 157.05,18.94 C157.13,18.87 157.20,18.78 157.27,18.68 C157.72,18.02 158.00,17.04 158.00,15.94 C158.00,14.71 157.97,14.01 157.43,13.58 C156.90,12.52 155.65,12.30 152.00,11.91 L 146.55 11.33 L 146.55 11.32 L 152.25 11.16 C156.62,11.04 158.00,10.64 158.00,9.50 C158.00,9.03 157.78,8.69 157.19,8.46 L 158.50 8.34 L 156.58 8.29 C155.59,8.08 153.98,8.00 151.50,8.00 L 145.00 8.00 L 145.00 11.31 C145.00,14.43 145.19,14.60 148.25,14.36 C152.12,14.05 155.00,14.78 155.00,16.07 C155.00,16.58 152.75,17.00 150.00,17.00 C146.22,17.00 145.00,17.37 145.00,18.50 C145.00,19.63 146.21,20.00 149.92,20.00 C152.62,20.00 155.55,19.73 156.42,19.39 ZM 95.00 26.66 C95.00,24.66 95.89,24.05 101.00,22.50 C106.77,20.75 107.00,20.56 107.00,17.34 C107.00,13.37 106.48,13.29 98.13,16.11 C93.51,17.67 92.02,18.61 92.44,19.70 C92.75,20.50 93.00,22.93 93.00,25.08 C93.00,27.24 93.45,29.00 94.00,29.00 C94.55,29.00 95.00,27.95 95.00,26.66 ZM 163.56 14.12 C163.39,11.54 164.76,11.21 169.42,12.08 C174.72,13.07 175.54,12.85 174.71,10.68 C174.68,10.62 174.65,10.56 174.61,10.51 C174.65,10.43 174.61,10.34 174.50,10.23 C173.66,9.42 170.61,8.83 167.72,8.65 C166.58,8.56 165.47,8.56 164.53,8.64 C163.37,8.72 162.48,8.92 162.14,9.26 C162.01,9.39 161.89,9.58 161.77,9.83 C161.63,10.10 161.52,10.43 161.42,10.84 C161.17,11.80 161.00,13.03 161.00,14.23 C161.00,15.49 161.08,16.40 161.30,17.08 L 161.50 20.50 L 165.50 21.11 C172.67,22.20 175.00,22.08 175.00,20.62 C175.00,19.05 172.01,18.03 167.37,18.01 C165.10,18.00 164.31,17.62 163.89,16.12 C163.82,15.57 163.70,14.87 163.56,14.12 ZM 129.00 64.57 C129.00,71.75 129.06,71.94 130.84,70.25 C131.85,69.29 132.50,68.16 132.28,67.75 C132.06,67.34 132.43,67.00 133.11,67.00 C133.78,67.00 134.04,66.70 133.68,66.34 C133.31,65.98 133.52,65.08 134.13,64.34 C134.95,63.35 134.94,62.64 134.10,61.62 C133.21,60.55 133.31,60.09 134.56,59.61 C135.45,59.27 136.59,59.25 137.09,59.55 C137.59,59.86 138.93,59.46 140.07,58.66 C142.03,57.29 141.92,57.19 137.82,56.86 C129.08,56.14 129.00,56.20 129.00,64.57 ZM 190.87 18.00 C191.05,14.05 190.77,13.00 189.55,13.00 C188.70,13.00 188.05,13.34 188.12,13.75 C188.53,16.35 187.83,17.00 185.25,16.43 C179.44,15.13 179.00,14.85 179.00,12.43 C179.00,11.09 178.55,10.00 178.00,10.00 C176.77,10.00 176.66,20.67 177.89,21.43 C178.37,21.73 179.02,21.02 179.33,19.86 C179.76,18.21 180.39,17.87 182.19,18.35 C183.46,18.69 185.29,18.98 186.25,18.99 C187.33,18.99 188.00,19.77 188.00,21.00 C188.00,22.10 188.59,23.00 189.32,23.00 C190.21,23.00 190.72,21.36 190.87,18.00 ZM 112.00 17.61 C112.00,14.54 112.31,14.17 115.25,13.76 C117.04,13.51 119.29,12.96 120.25,12.55 C121.75,11.89 122.00,12.35 122.00,15.77 C122.00,19.43 121.75,19.80 118.88,20.38 C112.77,21.60 112.00,21.28 112.00,17.61 ZM 95.46 20.93 C94.63,19.60 94.69,19.55 99.37,17.61 C104.31,15.56 105.00,15.59 105.00,17.84 C105.00,19.11 103.80,20.04 101.13,20.84 C96.41,22.26 96.28,22.26 95.46,20.93 ZM 134.82 14.39 C132.53,14.80 129.99,14.74 129.47,13.96 C129.45,13.92 129.43,13.88 129.41,13.85 C129.11,13.27 129.30,12.63 129.81,12.04 C130.56,11.70 131.93,11.63 133.93,11.82 C138.77,12.28 139.23,13.50 134.88,14.38 ZM 198.25 19.29 C197.01,19.06 196.00,18.22 196.00,17.43 C196.00,15.59 196.74,15.67 201.00,18.00 C204.50,19.92 203.62,20.33 198.25,19.29 ZM 149.00 75.58 C149.00,74.25 148.69,72.34 148.31,71.33 C147.71,69.72 147.83,69.66 149.31,70.87 C151.12,72.34 151.67,78.00 150.00,78.00 C149.45,78.00 149.00,76.91 149.00,75.58 ZM 153.00 110.00 C154.14,109.27 153.70,109.03 151.19,109.02 C149.24,109.01 148.13,109.41 148.50,110.00 C149.28,111.26 151.06,111.26 153.00,110.00 ZM 173.00 93.00 C173.00,92.45 172.55,92.00 172.00,92.00 C171.45,92.00 171.00,92.45 171.00,93.00 C171.00,93.55 171.45,94.00 172.00,94.00 C172.55,94.00 173.00,93.55 173.00,93.00 ZM 154.94 23.20 L 153.55 23.11 C153.96,23.12 154.42,23.16 154.94,23.20 Z" fill="rgb(219,183,124)"/>
<path d="M 0.00 84.00 L 0.00 0.00 L 150.00 0.00 L 300.00 0.00 L 300.00 84.00 L 300.00 168.00 L 150.00 168.00 L 0.00 168.00 L 0.00 84.00 ZM 163.14 160.01 C171.26,156.04 172.78,154.93 177.99,149.21 C179.14,147.96 180.52,147.20 181.06,147.54 C181.60,147.87 181.94,147.78 181.81,147.32 C181.44,146.06 190.69,137.04 191.56,137.82 C191.98,138.19 192.02,137.97 191.65,137.33 C191.28,136.69 191.64,135.50 192.44,134.70 C193.25,133.90 193.60,132.94 193.23,132.57 C192.86,132.20 193.41,132.22 194.45,132.62 C195.95,133.20 196.21,133.00 195.70,131.67 C195.35,130.75 195.50,130.00 196.03,130.00 C196.56,130.00 197.00,129.35 197.00,128.56 C197.00,127.77 197.52,126.80 198.15,126.40 C198.93,125.92 199.04,126.15 198.49,127.10 C198.05,127.87 198.01,128.20 198.42,127.83 C198.83,127.47 199.10,126.88 199.01,126.53 C198.92,126.17 199.99,124.39 201.38,122.57 C202.77,120.74 203.63,118.97 203.29,118.62 C202.95,118.28 203.27,118.00 204.00,118.00 C204.73,118.00 205.04,117.70 204.68,117.34 C204.31,116.98 204.58,115.99 205.26,115.15 C206.29,113.88 206.24,113.76 205.00,114.46 C204.18,114.92 204.51,114.31 205.75,113.11 C208.07,110.85 208.76,109.41 207.00,110.50 C206.45,110.84 206.00,110.64 206.00,110.06 C206.00,109.48 206.38,109.00 206.86,109.00 C208.12,109.00 210.92,94.67 211.44,85.50 C211.69,81.10 212.21,63.51 212.60,46.40 C213.13,22.84 213.02,15.13 212.12,14.57 C210.19,13.38 191.92,8.36 186.69,7.58 C183.47,7.10 181.40,7.25 180.45,8.04 C179.62,8.73 178.29,8.90 177.26,8.45 C175.22,7.55 172.52,7.14 165.32,6.62 C162.46,6.41 156.77,5.93 152.67,5.55 C147.36,5.05 145.00,5.19 144.48,6.03 C143.97,6.85 141.85,7.00 137.38,6.52 C133.02,6.06 131.00,6.19 131.00,6.93 C131.00,7.65 129.61,7.80 127.00,7.38 C124.80,7.03 123.00,7.14 123.00,7.62 C123.00,8.10 120.93,8.46 118.40,8.42 C115.69,8.37 113.23,8.91 112.40,9.74 C111.44,10.70 111.00,10.77 111.00,9.96 C111.00,8.42 104.13,9.41 95.71,12.16 C86.78,15.08 86.64,15.28 87.51,22.97 C87.92,26.56 88.19,32.33 88.11,35.79 C88.04,39.25 88.47,43.01 89.09,44.16 C89.98,45.83 89.94,46.09 88.85,45.47 C87.76,44.86 87.74,44.97 88.75,46.05 C89.44,46.79 90.00,47.79 90.00,48.26 C90.00,48.73 89.44,48.79 88.75,48.39 C88.06,47.99 88.29,48.56 89.25,49.66 C90.22,50.76 90.70,51.96 90.33,52.33 C89.57,53.10 89.24,77.00 90.00,77.00 C90.28,77.00 90.55,79.05 90.60,81.55 C90.66,84.05 91.29,86.64 92.00,87.30 C92.79,88.04 93.05,88.07 92.67,87.38 C92.26,86.64 93.05,86.38 95.02,86.61 C96.90,86.83 98.01,86.50 98.02,85.73 C98.03,84.92 98.28,84.86 98.77,85.55 C99.17,86.13 101.97,86.64 105.00,86.68 C112.50,86.78 124.18,87.85 124.81,88.48 C125.10,88.77 117.57,89.00 108.07,89.00 L 90.81 89.00 L 91.53 94.25 C92.94,104.59 91.84,103.97 109.23,104.22 L 124.50 104.44 L 109.25 104.75 C100.86,104.92 94.00,105.30 94.00,105.61 C94.00,106.88 99.46,119.70 100.98,122.00 C101.89,123.38 104.06,126.65 105.81,129.28 C107.57,131.91 109.00,134.30 109.00,134.60 C109.00,134.89 110.24,136.79 111.75,138.80 C114.98,143.12 124.69,153.19 123.51,151.00 C123.06,150.18 124.28,150.99 126.21,152.81 C128.14,154.63 133.72,158.15 138.61,160.63 C149.31,166.04 150.91,166.00 163.14,160.01 ZM 129.00 64.57 C129.00,56.20 129.08,56.14 137.82,56.86 C141.92,57.19 142.03,57.29 140.07,58.66 C138.93,59.46 137.59,59.86 137.09,59.55 C136.59,59.25 135.45,59.27 134.56,59.61 C133.31,60.09 133.21,60.55 134.10,61.62 C134.94,62.64 134.95,63.35 134.13,64.34 C133.52,65.08 133.31,65.98 133.68,66.34 C134.04,66.70 133.78,67.00 133.11,67.00 C132.43,67.00 132.06,67.34 132.28,67.75 C132.50,68.16 131.85,69.29 130.84,70.25 C129.06,71.94 129.00,71.75 129.00,64.57 ZM 149.02 24.28 C149.01,23.61 148.32,23.32 147.50,23.64 C146.68,23.95 146.00,23.80 146.00,23.30 C146.00,22.80 144.20,22.48 142.00,22.59 C139.80,22.70 138.00,22.41 138.00,21.95 C138.00,20.76 153.52,20.21 158.50,21.22 C160.15,21.56 161.86,21.87 162.31,21.92 C162.75,21.96 162.84,22.45 162.50,23.00 C162.12,23.61 159.69,23.75 156.34,23.35 C152.14,22.86 150.59,23.04 149.92,24.10 C149.32,25.05 149.03,25.11 149.02,24.28 Z" fill="rgb(254,254,253)"/>
</g>
</svg>